<svg width="57" height="62" viewBox="0 0 57 62" fill="none" xmlns="http://www.w3.org/2000/svg">
<path d="M7.58913 34.6069C7.6019 34.6069 7.61467 34.6069 7.62744 34.6069C7.72326 34.6069 7.81905 34.6453 7.8957 34.7219L27.499 55.7815C27.5565 55.839 27.5948 55.9348 27.5948 56.0306C27.5948 56.0498 27.5948 56.893 27.499 57.7553C27.3457 59.1158 27.0007 59.7865 26.445 59.844C26.4323 59.844 26.4195 59.844 26.4067 59.844C26.3109 59.844 26.2151 59.8057 26.1384 59.7482C26.0618 59.6715 26.0235 59.5757 26.0235 59.4799C26.0426 58.79 25.7552 57.966 25.4677 57.3145C25.4677 58.1193 25.6019 59.2691 26.0235 60.668C26.081 60.8213 26.0235 60.9937 25.8702 61.0704C25.8318 61.0959 25.7871 61.1151 25.736 61.1279C25.6211 61.1279 25.5061 61.1087 25.4294 61.0321C24.6246 60.2081 24.2796 59.1925 23.9347 58.2152C23.8197 57.8511 23.6856 57.4678 23.5515 57.1037C23.3407 58.0235 22.8233 58.7709 22.785 58.8284C22.7275 58.905 22.6317 58.9625 22.5167 58.9817C22.4656 58.9817 22.4145 58.9753 22.3634 58.9625C22.2101 58.905 22.1143 58.7517 22.1335 58.5984C22.1335 58.5793 22.1335 58.2535 21.961 57.6211C21.961 58.1577 21.9035 58.5601 21.9035 58.5984C21.8652 58.7517 21.7502 58.8859 21.5778 58.905C21.565 58.905 21.5586 58.905 21.5586 58.905C21.367 58.905 21.2137 58.79 21.1945 58.6176C20.9646 57.4487 20.1789 56.4905 19.6615 55.9731C19.3358 57.1037 18.6267 58.2152 18.5884 58.2726C18.5309 58.3685 18.4351 58.426 18.3201 58.426C18.2435 58.4451 18.1668 58.4259 18.0902 58.3685C17.9369 58.2726 17.8794 58.0427 17.9943 57.8702C18.0135 57.8511 18.4542 57.0654 17.7644 55.8965C17.5919 56.7205 17.8794 58.2727 18.2243 59.3074C18.2818 59.4991 18.186 59.6907 18.0135 59.7482C17.988 59.7609 17.956 59.7737 17.9177 59.7865C17.7644 59.7865 17.6303 59.729 17.5536 59.5949C17.5345 59.5374 16.9021 58.3493 15.5032 55.0725C15.1583 55.7432 15.484 56.7588 15.5032 56.778C15.5607 56.9504 15.4649 57.1612 15.2733 57.2187C15.2477 57.2315 15.2222 57.2379 15.1966 57.2379C15.0433 57.257 14.8709 57.1804 14.8134 57.0079C14.7942 56.9696 14.4493 56.0115 14.3918 54.1527C13.7211 54.7659 12.6672 55.3216 11.7857 55.4174C11.3003 55.4685 10.8978 55.3791 10.5785 55.1492C10.4635 55.0725 10.4252 54.9192 10.4443 54.7851C10.4635 54.6509 10.5593 54.5551 10.6934 54.5168C11.3641 54.306 11.8048 53.9419 12.054 53.4054C12.4564 52.5622 12.2648 51.4699 12.0923 50.8184C11.6707 51.3741 11.0767 52.3514 10.9809 53.3095C10.9809 53.4628 10.8659 53.597 10.7126 53.6162C10.6998 53.6289 10.687 53.6353 10.6743 53.6353C10.521 53.6353 10.3868 53.5778 10.3293 53.4437C9.73529 52.4472 9.90776 50.8376 10.1377 49.7262C9.29455 50.5693 8.29811 51.7766 8.27895 52.7922C8.27895 52.9455 8.18313 53.0796 8.02983 53.1179C8.00428 53.1307 7.97875 53.1371 7.9532 53.1371C7.83822 53.1563 7.70409 53.0988 7.62744 53.003C5.99863 50.8184 7.01424 48.4423 7.81907 47.1392C7.43582 47.2542 6.99509 47.35 6.53519 47.3883C5.57706 47.5033 4.79139 47.3309 4.19735 46.9093C4.08237 46.8326 4.02487 46.6793 4.0632 46.526C4.10152 46.3919 4.21651 46.2769 4.36981 46.2769C5.05967 46.2003 5.82616 45.4912 6.49685 44.6864C6.01779 44.993 5.46206 45.2613 4.92551 45.4338C4.89996 45.4338 4.87443 45.4338 4.84888 45.4338C4.77223 45.4465 4.70195 45.4338 4.63807 45.3954C4.56142 45.338 4.48479 45.2613 4.46563 45.1655C4.4273 45.025 4.43368 44.8653 4.48478 44.6864C4.15902 45.223 3.83325 45.817 3.56497 46.5069C3.50749 46.6218 3.39252 46.6985 3.25838 46.7177C3.25838 46.7177 3.252 46.7177 3.23922 46.7177C3.08592 46.7177 2.97094 46.641 2.89429 46.5069C1.89784 44.3415 3.39251 41.2947 4.25482 39.8575C3.79492 39.9724 3.20089 40.1066 2.58769 40.1641C1.4571 40.279 0.613942 40.1257 0.134879 39.7042C0.000741055 39.5892 -0.037584 39.4167 0.0390661 39.2634C0.0965537 39.1485 0.192366 39.091 0.326504 39.0718C0.364829 39.0718 0.396766 39.0718 0.422317 39.0718C0.613942 39.1101 0.818356 39.1165 1.03553 39.091C3.60331 38.8419 7.32081 34.7602 7.35914 34.7219C7.41663 34.6644 7.51248 34.6261 7.58913 34.6069V34.6069Z" fill="url(#paint0_linear_330_2035)"/>
<path d="M2.32031 39.6851C4.75395 40.1642 8.83559 35.6802 8.83559 35.6802L26.3884 54.5361C26.3884 54.5361 26.4076 57.6021 25.6219 57.6404C25.6411 56.2991 24.568 54.5361 24.568 54.5361C24.568 54.5361 24.1848 56.2033 25.0087 58.7902C23.744 57.5255 23.8398 55.6859 22.6901 54.1145C23.2458 55.2643 22.1344 56.8548 22.1344 56.8548C22.1344 56.8548 22.211 55.6667 20.9654 53.6163C21.5786 54.7469 21.2912 56.7973 21.2912 56.7973C20.9655 55.0918 19.4133 53.8846 19.4133 53.8846C19.2792 54.9768 18.3785 56.3757 18.3785 56.3757C18.3785 56.3757 19.0492 55.3026 17.8611 53.7888C17.0563 54.6127 18.0144 57.5829 18.0144 57.5829C18.0144 57.5829 17.4012 56.414 15.9832 53.1181C15.0442 53.7313 15.5808 55.3026 15.5808 55.3026C15.5808 55.3026 15.14 54.172 15.2167 51.9492C14.9867 52.6582 12.6681 54.2295 11.6716 53.4822C14.4118 52.6582 12.9364 49.2089 12.9364 49.2089C12.9364 49.2089 11.6525 50.627 11.5183 52.0833C10.7518 50.7611 11.6525 47.9825 11.6525 47.9825C11.6525 47.9825 9.12299 49.9563 9.08467 51.6234C7.09177 48.979 9.88953 45.913 9.88953 45.913C9.88953 45.913 7.34089 47.1202 5.96119 46.1238C7.51336 45.9705 9.33379 42.8278 9.33379 42.8278C9.33379 42.8278 7.83912 44.3033 6.32528 44.7441C6.07617 43.8243 8.79723 41.0457 8.79723 41.0457C8.79723 41.0457 6.40193 42.2721 4.88809 45.8938C3.75751 43.441 6.55522 39.5127 6.55522 39.5127C6.55522 39.5127 3.41258 40.6049 2.32031 39.6851V39.6851Z" fill="#318063"/>
<path d="M26.14 51.8346C26.14 51.8346 26.14 51.8282 26.14 51.8154C26.1592 51.7196 26.2167 51.6238 26.3125 51.5663L51.1663 37.0986C51.2429 37.0411 51.3387 37.0411 51.4345 37.0603C51.4728 37.0603 52.2777 37.2328 53.1017 37.5202C54.4048 37.9801 54.9604 38.4591 54.903 39.0149C54.903 39.0276 54.8966 39.0404 54.8838 39.0532C54.8646 39.149 54.8263 39.2448 54.7305 39.2831C54.6539 39.3406 54.558 39.3598 54.4622 39.3406C53.7915 39.1873 52.9292 39.2831 52.2202 39.4173C53.0059 39.5706 54.1556 39.7239 55.612 39.5897C55.7653 39.5897 55.9186 39.6856 55.9761 39.8389C56.0016 39.89 56.008 39.941 55.9952 39.9921C55.9761 40.1071 55.9186 40.2029 55.8419 40.2604C54.8646 40.8736 53.7915 40.9886 52.7568 41.1036C52.3735 41.1419 51.9902 41.1802 51.5878 41.2377C52.431 41.6593 53.0634 42.3108 53.1017 42.3683C53.1784 42.445 53.1975 42.5408 53.1975 42.6557C53.1847 42.7068 53.1656 42.7516 53.14 42.7899C53.0442 42.924 52.8909 43.0007 52.7376 42.9432C52.7184 42.9432 52.3927 42.8665 51.7411 42.8857C52.2777 43.0198 52.6418 43.154 52.6801 43.1731C52.8334 43.2306 52.9292 43.3839 52.9101 43.5564C52.9101 43.5692 52.9101 43.5755 52.9101 43.5755C52.8718 43.748 52.7184 43.8821 52.546 43.863C51.3579 43.8247 50.2465 44.3995 49.6333 44.7828C50.668 45.3385 51.5878 46.2775 51.6261 46.335C51.722 46.4116 51.7411 46.5266 51.7411 46.6224C51.722 46.699 51.6836 46.7757 51.6261 46.8332C51.492 46.9673 51.2621 46.9673 51.128 46.8332C51.0896 46.814 50.4381 46.2008 49.135 46.6032C49.9207 46.9673 51.4729 47.0248 52.5651 46.929C52.7568 46.9098 52.9292 47.0248 52.9484 47.2164C52.9612 47.2548 52.9675 47.2931 52.9675 47.3314C52.9484 47.4655 52.8334 47.5805 52.6993 47.6188C52.6418 47.638 51.3387 47.9829 47.8511 48.6345C48.4069 49.1135 49.48 49.0177 49.4991 49.0177C49.6908 48.9985 49.8632 49.1327 49.8824 49.3243C49.8952 49.3626 49.8952 49.3946 49.8824 49.4201C49.8632 49.5734 49.7482 49.7075 49.5758 49.7267C49.5374 49.7459 48.5218 49.88 46.7014 49.5159C47.1421 50.3208 47.4679 51.4513 47.3529 52.3328C47.2891 52.8183 47.1102 53.1887 46.8164 53.4442C46.7206 53.5401 46.5672 53.5592 46.4523 53.5209C46.3181 53.4634 46.2415 53.3484 46.2223 53.2143C46.184 52.5053 45.9349 51.9879 45.4558 51.6238C44.7277 51.0489 43.6162 50.9914 42.9264 51.0298C43.3863 51.5472 44.2103 52.352 45.1109 52.6586C45.2642 52.6969 45.36 52.831 45.36 53.0035C45.36 53.0163 45.36 53.0291 45.36 53.0418C45.3409 53.176 45.245 53.291 45.1109 53.3293C44.0186 53.6934 42.4665 53.1568 41.4509 52.6969C42.0641 53.6934 43.0413 54.9389 44.0186 55.188C44.1528 55.2072 44.2678 55.3413 44.2869 55.4946C44.2869 55.5202 44.2869 55.5457 44.2869 55.5713C44.2678 55.6863 44.1911 55.8012 44.0761 55.8587C41.6042 56.9701 39.4963 55.4563 38.404 54.3832C38.4232 54.7665 38.4232 55.2264 38.3657 55.6863C38.2507 56.6635 37.925 57.3917 37.3884 57.8708C37.2735 57.9666 37.1201 57.9857 36.986 57.9091C36.8519 57.8516 36.7752 57.6983 36.7944 57.545C36.871 56.8743 36.3536 55.9545 35.7404 55.1305C35.9129 55.6671 36.0662 56.2611 36.1045 56.836C36.1045 56.8616 36.0981 56.8807 36.0854 56.8935C36.0854 56.9701 36.0598 57.0404 36.0087 57.1043C35.932 57.1809 35.8363 57.2193 35.7404 57.2193C35.5999 57.2193 35.4466 57.1809 35.2806 57.1043C35.7213 57.5259 36.2387 57.9666 36.8519 58.3882C36.9477 58.4648 37.0052 58.599 36.986 58.7331C36.986 58.7459 36.986 58.7523 36.986 58.7523C36.9668 58.9056 36.8519 59.0014 36.7177 59.0397C34.3608 59.5571 31.7355 57.4109 30.5091 56.242C30.5282 56.721 30.5282 57.3342 30.4516 57.9474C30.3174 59.078 29.9725 59.8637 29.4551 60.2469C29.321 60.3428 29.1485 60.3428 29.0144 60.2469C28.9186 60.1511 28.8611 60.0361 28.8802 59.9212C28.8802 59.8828 28.893 59.8445 28.9186 59.8062C28.9952 59.6401 29.0463 59.4485 29.0719 59.2313C29.3785 56.6635 26.2358 52.1412 26.1975 52.0837C26.14 52.0262 26.1208 51.9304 26.14 51.8346V51.8346Z" fill="url(#paint1_linear_330_2035)"/>
<path d="M29.9137 58.1006C30.9294 55.8394 27.4609 50.8763 27.4609 50.8763L49.7086 37.9033C49.7086 37.9033 52.7171 38.5548 52.5638 39.3213C51.2608 39.0147 49.3062 39.6854 49.3062 39.6854C49.3062 39.6854 50.8584 40.4136 53.5603 40.1836C52.0464 41.1418 50.2835 40.6435 48.4822 41.4292C49.7278 41.1418 51.0308 42.5598 51.0308 42.5598C51.0308 42.5598 49.9002 42.234 47.6199 43.0005C48.8463 42.6556 50.8009 43.3838 50.8009 43.3838C49.0763 43.3263 47.5241 44.5719 47.5241 44.5719C48.578 44.936 49.7278 46.124 49.7278 46.124C49.7278 46.124 48.8463 45.2234 47.1025 46.0474C47.7349 47.0247 50.8392 46.7372 50.8392 46.7372C50.8392 46.7372 49.5553 47.0822 46.0294 47.7337C46.4318 48.7876 48.0798 48.6152 48.0798 48.6152C48.0798 48.6152 46.8725 48.7876 44.7263 48.2127C45.3779 48.596 46.3935 51.2213 45.4545 52.0261C45.2437 49.1709 41.5454 49.8416 41.5454 49.8416C41.5454 49.8416 42.6568 51.4129 44.0365 51.8536C42.5993 52.3135 40.0699 50.838 40.0699 50.838C40.0699 50.838 41.4304 53.7316 43.0592 54.134C40.0315 55.4945 37.6746 52.1027 37.6746 52.1027C37.6746 52.1027 38.2878 54.843 37.0039 55.9736C37.1955 54.4214 34.5319 51.9686 34.5319 51.9686C34.5319 51.9686 35.6433 53.7315 35.7391 55.322C34.781 55.3412 32.6731 52.0836 32.6731 52.0836C32.6731 52.0836 33.3438 54.6897 36.544 56.9508C33.8995 57.5257 30.6803 53.9232 30.6803 53.9232C30.6803 53.9232 31.0635 57.2383 29.9137 58.1006Z" fill="#318063"/>
<path d="M7.35914 26.6931C7.32081 26.6356 3.60331 22.5731 1.03553 22.3049C0.818356 22.2921 0.613942 22.3048 0.422317 22.3432C0.396766 22.3432 0.364829 22.3432 0.326504 22.3432C0.192366 22.324 0.0965537 22.2474 0.0390661 22.1324C-0.037584 21.9982 0.000741055 21.8258 0.134879 21.7108C0.613942 21.2892 1.4571 21.1359 2.58769 21.2509C3.20089 21.3084 3.79492 21.4425 4.25482 21.5575C3.39251 20.1203 1.89784 17.0735 2.89429 14.8889C2.97094 14.774 3.08592 14.6782 3.23922 14.6973C3.252 14.6973 3.25838 14.6973 3.25838 14.6973C3.39252 14.6973 3.50749 14.7931 3.56497 14.9081C3.83325 15.598 4.15902 16.192 4.48478 16.7286C4.43368 16.5497 4.4273 16.39 4.46563 16.2495C4.48479 16.1537 4.56142 16.0579 4.63807 16.0195C4.70195 15.9812 4.77223 15.9621 4.84888 15.9621C4.87443 15.9748 4.89996 15.9812 4.92551 15.9812C5.46206 16.1537 6.01779 16.4219 6.49685 16.7094C5.82616 15.9237 5.05967 15.2147 4.36981 15.1381C4.21651 15.1189 4.10152 15.0231 4.0632 14.8698C4.02487 14.7356 4.08237 14.5823 4.19735 14.4865C4.79139 14.0841 5.57706 13.9117 6.53519 14.0075C6.99509 14.065 7.43582 14.1608 7.81907 14.2758C7.01424 12.9727 5.99863 10.5774 7.62744 8.41202C7.70409 8.31621 7.83822 8.25871 7.9532 8.27787C7.97875 8.27787 8.00428 8.28428 8.02983 8.29705C8.18313 8.33538 8.27895 8.46951 8.27895 8.62281C8.29811 9.63842 9.29455 10.8457 10.1377 11.6697C9.90776 10.5774 9.73529 8.94857 10.3293 7.95212C10.3868 7.83714 10.521 7.76049 10.6743 7.77965C10.687 7.77965 10.6998 7.78603 10.7126 7.79881C10.8659 7.81797 10.9809 7.95213 10.9809 8.10543C11.0767 9.06355 11.6707 10.0408 12.0923 10.5966C12.2648 9.92587 12.4564 8.85277 12.054 8.00962C11.8048 7.4539 11.3641 7.10897 10.6934 6.89818C10.5593 6.85985 10.4635 6.74488 10.4443 6.61074C10.4252 6.4766 10.4635 6.34246 10.5785 6.26581C10.8978 6.03586 11.3003 5.94645 11.7857 5.99755C12.6672 6.09336 13.7211 6.64907 14.3918 7.26227C14.4493 5.40351 14.7942 4.44538 14.8134 4.38789C14.8709 4.23459 15.0433 4.15793 15.1966 4.15793C15.2222 4.17071 15.2477 4.17711 15.2733 4.17711C15.4649 4.25376 15.5607 4.44537 15.5032 4.63699C15.484 4.65616 15.1583 5.67178 15.5032 6.3233C16.9021 3.06568 17.5345 1.8776 17.5536 1.82011C17.6303 1.68597 17.7644 1.60932 17.9177 1.62849C17.956 1.62849 17.988 1.64125 18.0135 1.6668C18.186 1.72429 18.2818 1.91592 18.2243 2.10755C17.8794 3.14233 17.5919 4.6945 17.7644 5.51849C18.4542 4.33041 18.0135 3.56391 17.9943 3.52558C17.8794 3.37228 17.9369 3.14233 18.0902 3.04652C18.1668 2.98903 18.2435 2.96986 18.3201 2.98902C18.4351 2.98902 18.5309 3.04652 18.5884 3.14233C18.6267 3.19982 19.3358 4.31124 19.6615 5.44183C20.1789 4.92445 20.9646 3.96631 21.1945 2.7974C21.2137 2.62493 21.367 2.50996 21.5586 2.50996C21.5586 2.50996 21.565 2.50996 21.5778 2.50996C21.7502 2.52912 21.8652 2.64409 21.9035 2.81655C21.9035 2.85488 21.961 3.25731 21.961 3.79386C22.1335 3.1615 22.1335 2.81655 22.1335 2.81655C22.1143 2.66325 22.2101 2.50997 22.3634 2.45248C22.4145 2.43971 22.4656 2.4333 22.5167 2.4333C22.6317 2.45247 22.7275 2.50996 22.785 2.58661C22.8233 2.6441 23.3215 3.39144 23.5515 4.31124C23.6856 3.94715 23.8197 3.56389 23.9347 3.1998C24.2796 2.22252 24.6246 1.20691 25.4294 0.382922C25.5061 0.306272 25.6211 0.267947 25.736 0.28711C25.7871 0.28711 25.8318 0.306282 25.8702 0.344607C26.0235 0.421257 26.081 0.593715 26.0235 0.747015C25.6019 2.14588 25.4677 3.29563 25.4677 4.10046C25.7552 3.44893 26.0426 2.62493 26.0235 1.93508C26.0235 1.83927 26.0618 1.74345 26.1384 1.6668C26.2151 1.60931 26.3109 1.57099 26.4067 1.57099C26.4195 1.57099 26.4323 1.57099 26.445 1.57099C27.0007 1.62848 27.3457 2.29917 27.499 3.64055C27.5948 4.52203 27.5948 5.34601 27.5948 5.38434C27.5948 5.48015 27.5565 5.55681 27.499 5.63346L7.8957 26.6931C7.81905 26.7697 7.72326 26.808 7.62744 26.808C7.61467 26.808 7.6019 26.808 7.58913 26.808C7.51248 26.7889 7.41663 26.7506 7.35914 26.6931V26.6931Z" fill="url(#paint2_linear_330_2035)"/>
<path d="M6.55522 21.9025C6.55522 21.9025 3.75751 17.9742 4.88809 15.5214C6.40193 19.1431 8.79723 20.3695 8.79723 20.3695C8.79723 20.3695 6.07617 17.5909 6.32528 16.6711C7.83912 17.1119 9.33379 18.5874 9.33379 18.5874C9.33379 18.5874 7.51336 15.4447 5.96119 15.2914C7.34089 14.295 9.88953 15.5022 9.88953 15.5022C9.88953 15.5022 7.09177 12.4362 9.08467 9.77263C9.12299 11.4589 11.6525 13.4327 11.6525 13.4327C11.6525 13.4327 10.7518 10.6349 11.5183 9.33188C11.6525 10.7882 12.9364 12.2063 12.9364 12.2063C12.9364 12.2063 14.4118 8.73786 11.6716 7.91387C12.6681 7.1857 14.9867 8.73786 15.2167 9.46603C15.14 7.24318 15.5808 6.09343 15.5808 6.09343C15.5808 6.09343 15.0442 7.68392 15.9832 8.29712C17.4012 5.00117 18.0144 3.83225 18.0144 3.83225C18.0144 3.83225 17.0563 6.80245 17.8611 7.62644C19.0492 6.1126 18.3785 5.0395 18.3785 5.0395C18.3785 5.0395 19.2792 6.43836 19.4133 7.53062C19.4133 7.53062 20.9655 6.30421 21.2912 4.61791C21.2912 4.61791 21.5786 6.66829 20.9654 7.79888C22.211 5.74849 22.1344 4.56043 22.1344 4.56043C22.1344 4.56043 23.2458 6.13175 22.6901 7.30066C23.8398 5.71017 23.744 3.87056 25.0087 2.625C24.1848 5.21194 24.568 6.87909 24.568 6.87909C24.568 6.87909 25.6411 5.11613 25.6219 3.77475C26.4076 3.81308 26.3884 6.87909 26.3884 6.87909L8.83559 25.7158C8.83559 25.7158 4.75395 21.2318 2.32031 21.73C3.41258 20.8102 6.55522 21.9025 6.55522 21.9025V21.9025Z" fill="#318063"/>
<path d="M26.1975 9.31261C26.2358 9.27429 29.3785 4.73278 29.0719 2.18416C29.0463 1.96699 28.9952 1.77536 28.9186 1.60929C28.893 1.57096 28.8802 1.53264 28.8802 1.49432C28.8611 1.37934 28.9186 1.24519 29.0144 1.16854C29.1485 1.07273 29.321 1.07273 29.4551 1.16854C29.9725 1.55179 30.3174 2.33745 30.4516 3.46804C30.5282 4.08124 30.5282 4.67529 30.5091 5.17351C31.7355 4.0046 34.3608 1.8584 36.7177 2.37579C36.8519 2.39495 36.9668 2.50993 36.986 2.64407C36.986 2.65684 36.986 2.66961 36.986 2.68238C37.0052 2.81652 36.9477 2.93149 36.8519 3.00814C36.2387 3.44887 35.7213 3.87046 35.2806 4.3112C35.4466 4.23455 35.5999 4.19623 35.7404 4.19623C35.8363 4.19623 35.932 4.23455 36.0087 4.3112C36.0598 4.3623 36.0854 4.42617 36.0854 4.50282C36.0981 4.52837 36.1045 4.55393 36.1045 4.57948C36.0662 5.15435 35.9129 5.7484 35.7404 6.28495C36.3536 5.46096 36.871 4.54114 36.7944 3.87045C36.7752 3.71715 36.8519 3.56387 36.986 3.50638C37.1201 3.42973 37.2735 3.44888 37.3884 3.5447C37.925 4.02376 38.2507 4.75194 38.3657 5.71007C38.4232 6.18913 38.4232 6.62985 38.404 7.03227C39.4963 5.95916 41.6042 4.44533 44.0761 5.55676C44.1911 5.61425 44.2678 5.71006 44.2869 5.8442C44.2869 5.86975 44.2869 5.8953 44.2869 5.92085C44.2678 6.07415 44.1528 6.18912 44.0186 6.22745C43.0413 6.4574 42.0641 7.72213 41.4509 8.71858C42.4665 8.25868 44.0186 7.72212 45.1109 8.0862C45.245 8.12453 45.3409 8.2395 45.36 8.37364C45.36 8.38642 45.36 8.39921 45.36 8.41198C45.36 8.56528 45.2642 8.71857 45.1109 8.75689C44.2103 9.06349 43.3863 9.84916 42.9264 10.3857C43.6162 10.424 44.7277 10.3665 45.4558 9.79167C45.9349 9.42759 46.184 8.91021 46.2223 8.2012C46.2415 8.06706 46.3181 7.95207 46.4523 7.89458C46.5672 7.83709 46.7206 7.87543 46.8164 7.95208C47.1102 8.20758 47.2891 8.57806 47.3529 9.06351C47.4679 9.94499 47.1421 11.0947 46.7014 11.8996C48.5218 11.5355 49.5374 11.6696 49.5758 11.6888C49.7482 11.7079 49.8632 11.8421 49.8824 11.9954C49.8952 12.0209 49.8952 12.0465 49.8824 12.072C49.8632 12.2828 49.6908 12.4169 49.4991 12.3978C49.48 12.3978 48.4069 12.302 47.8511 12.781C51.3387 13.4325 52.6418 13.7775 52.6993 13.7775C52.8334 13.8158 52.9484 13.9499 52.9675 14.0841C52.9675 14.1224 52.9612 14.1607 52.9484 14.1991C52.9292 14.3715 52.7568 14.5057 52.5651 14.4865C51.4729 14.3907 49.9207 14.4482 49.135 14.7931C50.4381 15.2147 51.0896 14.6015 51.128 14.5823C51.2621 14.4482 51.492 14.429 51.6261 14.5823C51.6836 14.6398 51.722 14.7164 51.7411 14.7931C51.7411 14.8889 51.722 15.0039 51.6261 15.0805C51.5878 15.138 50.668 16.077 49.6333 16.6327C50.2465 17.016 51.3579 17.5717 52.546 17.5333C52.7184 17.5333 52.8718 17.6483 52.9101 17.8208C52.9101 17.8335 52.9101 17.8463 52.9101 17.8591C52.9292 18.0124 52.8334 18.1849 52.6801 18.2423C52.6418 18.2423 52.2777 18.3956 51.7411 18.5298C52.3927 18.5489 52.7184 18.4531 52.7376 18.4531C52.8909 18.4148 53.0442 18.4723 53.14 18.6064C53.1656 18.6575 53.1847 18.7086 53.1975 18.7597C53.1975 18.8556 53.1784 18.9705 53.1017 19.0472C53.0634 19.0855 52.431 19.7562 51.5878 20.1778C51.9902 20.2353 52.3735 20.2736 52.7568 20.3119C53.7915 20.4269 54.8646 20.5227 55.8419 21.1551C55.9186 21.2125 55.9761 21.3083 55.9952 21.4042C56.008 21.468 56.0016 21.5255 55.9761 21.5766C55.9186 21.7299 55.7653 21.8258 55.612 21.8066C54.1556 21.6916 53.0059 21.8258 52.2202 21.9982C52.9292 22.1324 53.7915 22.2281 54.4622 22.0748C54.558 22.0557 54.6539 22.0749 54.7305 22.1132C54.8263 22.1707 54.8646 22.2665 54.8838 22.3623C54.8966 22.3751 54.903 22.3878 54.903 22.4006C54.9604 22.9563 54.4048 23.4354 53.1017 23.8761C52.2777 24.1636 51.4728 24.3552 51.4345 24.3552C51.3387 24.3744 51.2429 24.3552 51.1663 24.3169L26.3125 9.83001C26.2167 9.79169 26.1592 9.69586 26.14 9.60005C26.14 9.58727 26.14 9.57451 26.14 9.56173C26.1208 9.48508 26.14 9.38926 26.1975 9.31261V9.31261Z" fill="url(#paint3_linear_330_2035)"/>
<path d="M30.6803 7.4732C30.6803 7.4732 33.8995 3.8898 36.544 4.44551C33.3438 6.70669 32.6731 9.33195 32.6731 9.33195C32.6731 9.33195 34.781 6.07434 35.7391 6.09351C35.6433 7.684 34.5319 9.44695 34.5319 9.44695C34.5319 9.44695 37.1955 6.99414 37.0039 5.44198C38.2878 6.57257 37.6746 9.3128 37.6746 9.3128C37.6746 9.3128 40.0315 5.92104 43.0592 7.28157C41.4304 7.66482 40.0699 10.5775 40.0699 10.5775C40.0699 10.5775 42.5993 9.08286 44.0365 9.54276C42.6568 10.0027 41.5454 11.574 41.5454 11.574C41.5454 11.574 45.2437 12.2447 45.4545 9.38945C46.3935 10.1943 45.3779 12.8004 44.7263 13.1836C46.8725 12.6088 48.0798 12.7812 48.0798 12.7812C48.0798 12.7812 46.4318 12.6279 46.0294 13.6819C49.5553 14.3142 50.8392 14.6591 50.8392 14.6591C50.8392 14.6591 47.7349 14.3909 47.1025 15.3681C48.8463 16.1921 49.7278 15.2915 49.7278 15.2915C49.7278 15.2915 48.578 16.4796 47.5241 16.8437C47.5241 16.8437 49.0763 18.0892 50.8009 18.0317C50.8009 18.0317 48.8463 18.7599 47.6199 18.415C49.9002 19.1815 51.0308 18.8557 51.0308 18.8557C51.0308 18.8557 49.7278 20.2738 48.4822 19.9863C50.2835 20.772 52.0464 20.2546 53.5603 21.2127C50.8584 21.0019 49.3062 21.7301 49.3062 21.7301C49.3062 21.7301 51.2608 22.4008 52.5638 22.0942C52.7171 22.8607 49.7086 23.5122 49.7086 23.5122L27.4609 10.5392C27.4609 10.5392 30.9294 5.57612 29.9137 3.31494C31.0635 4.15809 30.6803 7.4732 30.6803 7.4732Z" fill="#318063"/>
<path d="M54.8265 29.5675C54.8265 31.867 52.3354 33.7833 51.7796 35.8912C51.1856 38.0757 52.3545 40.9884 51.2623 42.9047C50.1317 44.8401 47.0273 45.2616 45.456 46.833C43.8847 48.4235 43.444 51.5278 41.5086 52.6584C39.5923 53.7506 36.6796 52.5817 34.5142 53.1758C32.4064 53.7315 30.471 56.2226 28.1906 56.2226C25.8911 56.2226 23.9749 53.7315 21.867 53.1758C19.6825 52.5817 16.7698 53.7506 14.8727 52.6584C12.9181 51.5278 12.4965 48.4235 10.9252 46.833C9.35384 45.2616 6.23034 44.8401 5.11891 42.9047C4.00749 40.9884 5.17641 38.0757 4.60153 35.8912C4.02666 33.7833 1.55469 31.867 1.55469 29.5675C1.55469 27.2872 4.02666 25.3709 4.60153 23.2631C5.17641 21.0785 4.00749 18.1658 5.11891 16.2496C6.23034 14.3142 9.35384 13.8926 10.9252 12.3213C12.4965 10.7308 12.9181 7.62645 14.8727 6.49586C16.7698 5.4036 19.6825 6.5725 21.867 5.97846C23.9749 5.42275 25.8911 2.93164 28.1906 2.93164C30.471 2.93164 32.4064 5.42275 34.5142 5.97846C36.6796 6.5725 39.5923 5.4036 41.5086 6.49586C43.444 7.62645 43.8847 10.7308 45.456 12.3213C47.0273 13.8926 50.1317 14.3142 51.2623 16.2496C52.3545 18.1658 51.1856 21.0785 51.7796 23.2631C52.3354 25.3709 54.8265 27.2872 54.8265 29.5675Z" fill="url(#paint4_linear_330_2035)"/>
<path d="M53.4832 28.2453C53.4832 28.7244 53.3682 29.2035 53.1766 29.6634C52.9467 30.2382 52.5826 30.7939 52.2185 31.3496C51.567 32.3269 50.858 33.2659 50.5897 34.2432C50.2256 35.6037 50.5705 37.2325 50.5705 38.7272C50.5705 39.5129 50.4747 40.2602 50.1106 40.8926C49.9956 41.0842 49.8615 41.2631 49.7082 41.4291C48.4435 42.828 45.9332 43.3071 44.5918 44.6484C43.0971 46.1431 42.6756 49.0942 40.836 50.1673C39.0347 51.2212 36.2561 50.1098 34.1865 50.6463C32.1936 51.1829 30.3541 53.559 28.1887 53.559C26.0042 53.559 24.1837 51.1829 22.1717 50.6463C20.1021 50.1098 17.3427 51.2212 15.5223 50.1673C13.6827 49.0942 13.2802 46.1431 11.7856 44.6484C10.2909 43.1538 7.3207 42.7322 6.26676 40.8926C6.22843 40.8287 6.19011 40.7585 6.15179 40.6818C5.88351 40.1069 5.80686 39.4554 5.78769 38.7847C5.78769 37.29 6.13262 35.6229 5.76854 34.2432C5.23199 32.2503 2.875 30.4107 2.875 28.2453C2.875 26.08 5.23199 24.2403 5.76854 22.2474C6.32425 20.1587 5.21282 17.3993 6.26676 15.5789C7.3207 13.7393 10.2909 13.3369 11.7856 11.8422C13.2802 10.3475 13.6827 7.3965 15.5223 6.3234C17.3427 5.26946 20.1021 6.38089 22.1717 5.82518C24.1837 5.30779 26.0042 2.93164 28.1887 2.93164C30.3541 2.93164 32.1936 5.30779 34.1865 5.82518C36.2561 6.38089 39.0347 5.26946 40.836 6.3234C42.6373 7.35817 43.078 10.1942 44.4577 11.7081C44.496 11.7592 44.5407 11.8039 44.5918 11.8422C45.6649 12.9153 47.4854 13.4327 48.8267 14.3142C49.3441 14.6591 49.804 15.0615 50.1106 15.5789C51.1454 17.3993 50.034 20.1587 50.5897 22.2474C51.1262 24.2403 53.4832 26.08 53.4832 28.2453Z" fill="url(#paint5_linear_330_2035)"/>
<path d="M50.0723 33.8983C49.5166 35.9487 50.628 38.6889 49.5741 40.4902C48.5393 42.3106 45.6074 42.713 44.1319 44.1885C42.6564 45.664 42.2348 48.5959 40.4144 49.6499C38.6322 50.6846 35.892 49.5732 33.8417 50.1289C31.8679 50.6655 30.0475 53.0033 27.9013 53.0033C25.7551 53.0033 23.9538 50.6655 21.9609 50.1289C19.9105 49.5732 17.1894 50.6846 15.3881 49.6499C13.5677 48.5959 13.1653 45.664 11.6898 44.1885C10.2142 42.713 7.28238 42.3106 6.22844 40.4902C5.19367 38.6889 6.28593 35.9487 5.74938 33.8983C5.21283 31.9245 2.875 30.1041 2.875 27.9579C2.875 26.8465 3.50737 25.8308 4.17806 24.8152C4.63796 24.1445 5.13618 23.4739 5.46194 22.784C5.57692 22.5285 5.67273 22.273 5.74938 22.0175C6.28593 19.9863 5.19367 17.246 6.22844 15.4448C7.28238 13.6243 10.2142 13.2219 11.6898 11.7464C13.1653 10.2709 13.5677 7.33902 15.3881 6.28508C17.1894 5.25031 19.9105 6.34257 21.9609 5.80602C23.9538 5.26947 25.7551 2.93164 27.9013 2.93164C30.0475 2.93164 31.8679 5.26947 33.8417 5.80602C35.892 6.34257 38.6322 5.25031 40.4144 6.28508C42.1582 7.3007 42.6181 10.0026 43.9403 11.5356C43.9914 11.6122 44.0553 11.6825 44.1319 11.7464C45.1859 12.8003 46.9871 13.3177 48.3094 14.18C48.8459 14.525 49.2866 14.9274 49.5741 15.4448C50.628 17.246 49.5166 19.9863 50.0723 22.0175C50.5897 24.0104 52.9275 25.8117 52.9275 27.9579C52.9275 30.1041 50.5897 31.9245 50.0723 33.8983Z" fill="url(#paint6_linear_330_2035)"/>
<path d="M14.9873 23.8568C11.4614 24.4317 7.05407 24.6999 4.17969 24.8149C4.63959 24.1442 5.1378 23.4735 5.46357 22.7837C7.97386 22.937 11.4039 23.0711 14.8915 22.9178C15.4856 22.8987 15.5814 23.761 14.9873 23.8568V23.8568Z" fill="url(#paint7_linear_330_2035)"/>
<path d="M53.178 29.6631C52.948 30.238 52.5839 30.7937 52.2199 31.3494C25.2774 32.1159 12.151 37.0981 6.15316 40.6815C5.88488 40.1067 5.80823 39.4551 5.78906 38.7844C6.23619 38.2734 6.72166 37.7113 7.24543 37.0981C22.1347 31.2919 45.283 29.9505 53.178 29.6631V29.6631Z" fill="url(#paint8_linear_330_2035)"/>
<path d="M50.5706 38.7275C50.5706 39.5132 50.4748 40.2606 50.1107 40.8929C49.9957 41.0845 49.8616 41.2634 49.7083 41.4294C47.1214 42.1001 40.472 43.6906 34.0717 44.323C33.6118 44.3613 33.516 43.7098 33.9567 43.6331C40.4911 42.4259 47.0639 40.0881 50.5706 38.7275Z" fill="url(#paint9_linear_330_2035)"/>
<path d="M48.8289 14.3141C45.4946 15.1956 35.9517 17.5334 27.7501 17.5717C27.2519 17.5717 27.1752 16.8436 27.6735 16.7478C34.2271 15.5022 40.8765 13.126 44.4599 11.708C44.4982 11.7591 44.5429 11.8038 44.594 11.8422C45.6671 12.9153 47.4875 13.4326 48.8289 14.3141V14.3141Z" fill="url(#paint10_linear_330_2035)"/>
<path d="M28.2101 39.3019C27.8652 39.3019 27.5203 39.206 27.2137 39.0336L14.5664 31.7135C13.934 31.3494 13.5508 30.6979 13.5508 29.9697C13.5508 29.2415 13.934 28.59 14.5664 28.2259L27.2137 20.925C27.5203 20.7525 27.8652 20.6567 28.2101 20.6567C29.3215 20.6567 30.2414 21.5574 30.2414 22.6688V24.5084H40.7232C41.6814 24.5084 42.4479 25.2749 42.4479 26.233V33.7256C42.4479 34.6837 41.6814 35.4502 40.7232 35.4502H30.2414V37.2898C30.2414 38.4012 29.3215 39.3019 28.2101 39.3019Z" fill="url(#paint11_linear_330_2035)"/>
<path fill-rule="evenodd" clip-rule="evenodd" d="M30.7417 22.669V24.0104H40.7254C41.9518 24.0104 42.9482 25.0068 42.9482 26.2332V33.7258C42.9482 34.9522 41.9518 35.9486 40.7254 35.9486H30.7417V37.29C30.7417 38.6697 29.6111 39.8003 28.2122 39.8003C27.7906 39.8003 27.3499 39.6853 26.9667 39.4745L14.3003 32.1544C13.5146 31.7137 13.0547 30.8897 13.0547 29.9699C13.0547 29.0693 13.5146 28.2453 14.3003 27.8045L26.9667 20.4845C27.3499 20.2737 27.7906 20.1587 28.2122 20.1587C29.6111 20.1587 30.7417 21.2893 30.7417 22.669ZM27.4649 21.3659L14.8176 28.6669C13.802 29.2609 13.802 30.6981 14.8176 31.2921L27.4649 38.593C27.714 38.7272 27.9631 38.7847 28.2122 38.7847C28.9979 38.7847 29.7261 38.1715 29.7261 37.29V34.933H40.7254C41.396 34.933 41.9517 34.3965 41.9517 33.7258V26.2332C41.9517 25.5625 41.396 25.026 40.7254 25.026H29.7261V22.669C29.7261 21.7875 28.9979 21.1552 28.2122 21.1552C27.9631 21.1552 27.714 21.2318 27.4649 21.3659Z" fill="#5A2903"/>
<path d="M40.3772 25.6457V32.5251C40.3772 33.1383 39.8598 33.6365 39.2274 33.6365H28.8222V35.7827C28.8222 36.8558 27.6341 37.5265 26.676 36.9899L18.3786 32.3334L14.7186 30.2831C13.7605 29.7465 13.7605 28.4243 14.7186 27.8877L26.676 21.1809C27.6341 20.6635 28.8222 21.315 28.8222 22.3881V24.5343H39.2274C39.3807 24.5343 39.5277 24.5599 39.6682 24.611C40.0898 24.7834 40.3772 25.1858 40.3772 25.6457Z" fill="url(#paint12_linear_330_2035)"/>
<g opacity="0.3">
<path d="M40.4361 25.8116V32.691C40.4361 33.3042 39.9187 33.8024 39.2863 33.8024H28.8811V35.9486C28.8811 37.0217 27.693 37.6924 26.7349 37.1558L18.4375 32.4993C30.0883 31.4071 36.6419 27.3638 39.7271 24.7769C40.1487 24.9493 40.4361 25.3517 40.4361 25.8116Z" fill="#318063"/>
</g>
<defs>
<linearGradient id="paint0_linear_330_2035" x1="-7.51097" y1="52.0832" x2="5.84531" y2="28.0917" gradientUnits="userSpaceOnUse">
<stop stop-color="#95D543"/>
<stop offset="1" stop-color="#318063"/>
</linearGradient>
<linearGradient id="paint1_linear_330_2035" x1="39.822" y1="70.4222" x2="19.414" y2="52.122" gradientUnits="userSpaceOnUse">
<stop stop-color="#95D543"/>
<stop offset="1" stop-color="#318063"/>
</linearGradient>
<linearGradient id="paint2_linear_330_2035" x1="-7.51097" y1="9.33182" x2="5.84531" y2="33.3233" gradientUnits="userSpaceOnUse">
<stop stop-color="#95D543"/>
<stop offset="1" stop-color="#318063"/>
</linearGradient>
<linearGradient id="paint3_linear_330_2035" x1="39.822" y1="-9.00676" x2="19.414" y2="9.29346" gradientUnits="userSpaceOnUse">
<stop stop-color="#95D543"/>
<stop offset="1" stop-color="#318063"/>
</linearGradient>
<linearGradient id="paint4_linear_330_2035" x1="47.7555" y1="6.74498" x2="64.3503" y2="44.4568" gradientUnits="userSpaceOnUse">
<stop stop-color="#F8A45B"/>
<stop offset="1" stop-color="#562500"/>
</linearGradient>
<linearGradient id="paint5_linear_330_2035" x1="52.985" y1="79.5625" x2="1.87857" y2="40.586" gradientUnits="userSpaceOnUse">
<stop stop-color="#F8A45B"/>
<stop offset="1" stop-color="#96440C"/>
</linearGradient>
<linearGradient id="paint6_linear_330_2035" x1="43.9403" y1="2.93164" x2="62.8154" y2="40.9501" gradientUnits="userSpaceOnUse">
<stop stop-color="#F8A45B"/>
<stop offset="1" stop-color="#96440C"/>
</linearGradient>
<linearGradient id="paint7_linear_330_2035" x1="15.6005" y1="21.5956" x2="15.888" y2="25.4473" gradientUnits="userSpaceOnUse">
<stop offset="0.4" stop-color="#96440C"/>
<stop offset="0.5" stop-color="#B76427"/>
</linearGradient>
<linearGradient id="paint8_linear_330_2035" x1="53.293" y1="27.5552" x2="54.0211" y2="33.0165" gradientUnits="userSpaceOnUse">
<stop offset="0.4" stop-color="#96440C"/>
<stop offset="0.5" stop-color="#B76427"/>
</linearGradient>
<linearGradient id="paint9_linear_330_2035" x1="50.9347" y1="38.5551" x2="51.797" y2="42.3876" gradientUnits="userSpaceOnUse">
<stop offset="0.4" stop-color="#96440C"/>
<stop offset="0.5" stop-color="#B76427"/>
</linearGradient>
<linearGradient id="paint10_linear_330_2035" x1="48.4073" y1="10.4624" x2="49.4996" y2="15.6938" gradientUnits="userSpaceOnUse">
<stop offset="0.4" stop-color="#96440C"/>
<stop offset="0.5" stop-color="#B76427"/>
</linearGradient>
<linearGradient id="paint11_linear_330_2035" x1="39.7076" y1="18.8938" x2="46.9511" y2="33.4956" gradientUnits="userSpaceOnUse">
<stop stop-color="#318063"/>
<stop offset="1" stop-color="#124933"/>
</linearGradient>
<linearGradient id="paint12_linear_330_2035" x1="38.001" y1="19.6862" x2="44.1139" y2="31.9694" gradientUnits="userSpaceOnUse">
<stop stop-color="#95D543"/>
<stop offset="1" stop-color="#E3FFBB"/>
</linearGradient>
</defs>
</svg>
