<svg width="57" height="62" viewBox="0 0 57 62" fill="none" xmlns="http://www.w3.org/2000/svg">
<path d="M49.4109 34.6069C49.3981 34.6069 49.3853 34.6069 49.3726 34.6069C49.2767 34.6069 49.181 34.6453 49.1043 34.7219L29.501 55.7815C29.4435 55.839 29.4052 55.9348 29.4052 56.0306C29.4052 56.0498 29.4052 56.893 29.501 57.7553C29.6543 59.1158 29.9993 59.7865 30.555 59.844C30.5677 59.844 30.5805 59.844 30.5933 59.844C30.6891 59.844 30.7849 59.8057 30.8616 59.7482C30.9382 59.6715 30.9765 59.5757 30.9765 59.4799C30.9574 58.79 31.2448 57.966 31.5323 57.3145C31.5323 58.1193 31.3981 59.2691 30.9765 60.668C30.919 60.8213 30.9765 60.9937 31.1298 61.0704C31.1682 61.0959 31.2129 61.1151 31.264 61.1279C31.3789 61.1279 31.4939 61.1087 31.5706 61.0321C32.3754 60.2081 32.7204 59.1925 33.0653 58.2152C33.1803 57.8511 33.3144 57.4678 33.4485 57.1037C33.6593 58.0235 34.1767 58.7709 34.215 58.8284C34.2725 58.905 34.3683 58.9625 34.4833 58.9817C34.5344 58.9817 34.5855 58.9753 34.6366 58.9625C34.7899 58.905 34.8857 58.7517 34.8665 58.5984C34.8665 58.5793 34.8665 58.2535 35.039 57.6211C35.039 58.1577 35.0965 58.5601 35.0965 58.5984C35.1348 58.7517 35.2498 58.8859 35.4222 58.905C35.435 58.905 35.4414 58.905 35.4414 58.905C35.633 58.905 35.7863 58.79 35.8055 58.6176C36.0354 57.4487 36.8211 56.4905 37.3385 55.9731C37.6642 57.1037 38.3733 58.2152 38.4116 58.2726C38.4691 58.3685 38.5649 58.426 38.6799 58.426C38.7565 58.4451 38.8332 58.4259 38.9098 58.3685C39.0631 58.2726 39.1206 58.0427 39.0057 57.8702C38.9865 57.8511 38.5458 57.0654 39.2356 55.8965C39.4081 56.7205 39.1206 58.2727 38.7757 59.3074C38.7182 59.4991 38.814 59.6907 38.9865 59.7482C39.012 59.761 39.044 59.7737 39.0823 59.7865C39.2356 59.7865 39.3697 59.729 39.4464 59.5949C39.4655 59.5374 40.0979 58.3493 41.4968 55.0725C41.8417 55.7432 41.516 56.7588 41.4968 56.778C41.4393 56.9504 41.5351 57.1612 41.7267 57.2187C41.7523 57.2315 41.7778 57.2379 41.8034 57.2379C41.9567 57.257 42.1291 57.1804 42.1866 57.0079C42.2058 56.9696 42.5507 56.0115 42.6082 54.1527C43.2789 54.7659 44.3328 55.3216 45.2143 55.4174C45.6997 55.4685 46.1022 55.3791 46.4215 55.1492C46.5365 55.0725 46.5748 54.9192 46.5557 54.7851C46.5365 54.6509 46.4407 54.5551 46.3066 54.5168C45.6359 54.306 45.1952 53.9419 44.946 53.4054C44.5436 52.5622 44.7352 51.4699 44.9077 50.8184C45.3293 51.3741 45.9233 52.3514 46.0191 53.3095C46.0191 53.4628 46.1341 53.597 46.2874 53.6162C46.3002 53.6289 46.313 53.6353 46.3257 53.6353C46.479 53.6353 46.6132 53.5778 46.6707 53.4437C47.2647 52.4473 47.0922 50.8376 46.8623 49.7262C47.7054 50.5693 48.7019 51.7766 48.721 52.7922C48.721 52.9455 48.8169 53.0796 48.9702 53.1179C48.9957 53.1307 49.0213 53.1371 49.0468 53.1371C49.1618 53.1563 49.2959 53.0988 49.3726 53.003C51.0014 50.8184 49.9858 48.4423 49.1809 47.1392C49.5642 47.2542 50.0049 47.35 50.4648 47.3883C51.4229 47.5033 52.2086 47.3309 52.8027 46.9093C52.9176 46.8326 52.9751 46.6793 52.9368 46.526C52.8985 46.3919 52.7835 46.2769 52.6302 46.2769C51.9403 46.2003 51.1738 45.4912 50.5031 44.6864C50.9822 44.993 51.5379 45.2613 52.0745 45.4338C52.1 45.4338 52.1256 45.4338 52.1511 45.4338C52.2278 45.4465 52.2981 45.4338 52.3619 45.3954C52.4386 45.338 52.5152 45.2613 52.5344 45.1655C52.5727 45.025 52.5663 44.8653 52.5152 44.6864C52.841 45.223 53.1668 45.817 53.435 46.5069C53.4925 46.6218 53.6075 46.6985 53.7416 46.7177C53.7416 46.7177 53.748 46.7177 53.7608 46.7177C53.9141 46.7177 54.0291 46.641 54.1057 46.5069C55.1022 44.3415 53.6075 41.2947 52.7452 39.8575C53.2051 39.9724 53.7991 40.1066 54.4123 40.1641C55.5429 40.279 56.3861 40.1257 56.8651 39.7042C56.9993 39.5892 57.0376 39.4167 56.9609 39.2634C56.9034 39.1485 56.8076 39.091 56.6735 39.0718C56.6352 39.0718 56.6032 39.0718 56.5777 39.0718C56.3861 39.1101 56.1816 39.1165 55.9645 39.091C53.3967 38.8419 49.6792 34.7602 49.6409 34.7219C49.5834 34.6644 49.4875 34.6261 49.4109 34.6069Z" fill="url(#paint0_linear_330_2065)"/>
<path d="M54.6797 39.6851C52.246 40.1642 48.1644 35.6802 48.1644 35.6802L30.6116 54.5361C30.6116 54.5361 30.5924 57.6021 31.3781 57.6404C31.3589 56.2991 32.432 54.5361 32.432 54.5361C32.432 54.5361 32.8152 56.2033 31.9913 58.7902C33.256 57.5255 33.1602 55.6859 34.3099 54.1145C33.7542 55.2643 34.8656 56.8548 34.8656 56.8548C34.8656 56.8548 34.789 55.6667 36.0346 53.6163C35.4214 54.7469 35.7088 56.7973 35.7088 56.7973C36.0345 55.0918 37.5867 53.8846 37.5867 53.8846C37.7208 54.9768 38.6215 56.3757 38.6215 56.3757C38.6215 56.3757 37.9508 55.3026 39.1389 53.7888C39.9437 54.6127 38.9856 57.5829 38.9856 57.5829C38.9856 57.5829 39.5988 56.414 41.0168 53.1181C41.9558 53.7313 41.4192 55.3026 41.4192 55.3026C41.4192 55.3026 41.86 54.172 41.7833 51.9492C42.0133 52.6582 44.3319 54.2295 45.3284 53.4822C42.5882 52.6582 44.0636 49.2089 44.0636 49.2089C44.0636 49.2089 45.3475 50.627 45.4817 52.0833C46.2482 50.7611 45.3475 47.9825 45.3475 47.9825C45.3475 47.9825 47.877 49.9563 47.9153 51.6234C49.9082 48.979 47.1105 45.913 47.1105 45.913C47.1105 45.913 49.6591 47.1202 51.0388 46.1238C49.4866 45.9705 47.6662 42.8278 47.6662 42.8278C47.6662 42.8278 49.1609 44.3033 50.6747 44.7441C50.9238 43.8243 48.2028 41.0457 48.2028 41.0457C48.2028 41.0457 50.5981 42.2721 52.1119 45.8938C53.2425 43.441 50.4448 39.5127 50.4448 39.5127C50.4448 39.5127 53.5874 40.6049 54.6797 39.6851Z" fill="#318063"/>
<path d="M30.86 51.8346C30.86 51.8346 30.86 51.8282 30.86 51.8154C30.8408 51.7196 30.7833 51.6238 30.6875 51.5663L5.83373 37.0986C5.75708 37.0411 5.66129 37.0411 5.56548 37.0603C5.52715 37.0603 4.72229 37.2328 3.8983 37.5202C2.59525 37.9801 2.03955 38.4591 2.09704 39.0149C2.09704 39.0276 2.10345 39.0404 2.11622 39.0532C2.13539 39.149 2.17367 39.2448 2.26949 39.2831C2.34613 39.3406 2.44198 39.3598 2.53779 39.3406C3.20848 39.1873 4.07078 39.2831 4.77979 39.4173C3.99413 39.5706 2.84439 39.7239 1.38804 39.5897C1.23474 39.5897 1.08141 39.6856 1.02392 39.8389C0.998371 39.89 0.992012 39.941 1.00479 39.9921C1.02395 40.1071 1.08145 40.2029 1.1581 40.2604C2.13539 40.8736 3.20846 40.9886 4.24323 41.1036C4.62648 41.1419 5.00975 41.1802 5.41217 41.2377C4.56902 41.6593 3.93662 42.3108 3.8983 42.3683C3.82165 42.445 3.80249 42.5408 3.80249 42.6557C3.81526 42.7068 3.83443 42.7516 3.85998 42.7899C3.9558 42.924 4.10912 43.0007 4.26241 42.9432C4.28158 42.9432 4.60733 42.8665 5.25886 42.8857C4.72231 43.0198 4.35824 43.154 4.31991 43.1731C4.16661 43.2306 4.07076 43.3839 4.08992 43.5564C4.08992 43.5692 4.08992 43.5755 4.08992 43.5755C4.12825 43.748 4.28158 43.8821 4.45404 43.863C5.64212 43.8247 6.75353 44.3995 7.36673 44.7828C6.33196 45.3385 5.41218 46.2775 5.37385 46.335C5.27804 46.4116 5.25886 46.5266 5.25886 46.6224C5.27802 46.699 5.31636 46.7757 5.37385 46.8332C5.50799 46.9673 5.73791 46.9673 5.87205 46.8332C5.91037 46.814 6.56193 46.2008 7.86498 46.6032C7.07932 46.9673 5.52712 47.0248 4.43486 46.929C4.24323 46.9098 4.07077 47.0248 4.05161 47.2164C4.03883 47.2548 4.03247 47.2931 4.03247 47.3314C4.05164 47.4655 4.16659 47.5805 4.30073 47.6188C4.35822 47.638 5.66128 47.9829 9.14886 48.6345C8.59315 49.1135 7.52003 49.0177 7.50086 49.0177C7.30924 48.9985 7.13677 49.1327 7.11761 49.3243C7.10484 49.3626 7.10484 49.3946 7.11761 49.4201C7.13677 49.5734 7.25177 49.7076 7.42423 49.7267C7.46256 49.7459 8.47817 49.88 10.2986 49.5159C9.85787 50.3208 9.53208 51.4513 9.64705 52.3328C9.71093 52.8183 9.88979 53.1887 10.1836 53.4442C10.2794 53.5401 10.4328 53.5592 10.5477 53.5209C10.6819 53.4634 10.7585 53.3484 10.7777 53.2143C10.816 52.5053 11.0651 51.9879 11.5442 51.6238C12.2723 51.0489 13.3838 50.9914 14.0736 51.0298C13.6137 51.5472 12.7897 52.352 11.8891 52.6586C11.7358 52.6969 11.64 52.831 11.64 53.0035C11.64 53.0163 11.64 53.0291 11.64 53.0418C11.6591 53.176 11.755 53.291 11.8891 53.3293C12.9814 53.6934 14.5335 53.1568 15.5491 52.6969C14.9359 53.6934 13.9587 54.9389 12.9814 55.188C12.8472 55.2072 12.7322 55.3413 12.7131 55.4946C12.7131 55.5202 12.7131 55.5457 12.7131 55.5713C12.7322 55.6863 12.8089 55.8012 12.9239 55.8587C15.3958 56.9701 17.5037 55.4563 18.596 54.3832C18.5768 54.7665 18.5768 55.2264 18.6343 55.6863C18.7493 56.6635 19.075 57.3917 19.6116 57.8708C19.7265 57.9666 19.8799 57.9857 20.014 57.9091C20.1481 57.8516 20.2248 57.6983 20.2056 57.545C20.129 56.8743 20.6464 55.9545 21.2596 55.1305C21.0871 55.6671 20.9338 56.2611 20.8955 56.836C20.8955 56.8616 20.9019 56.8807 20.9146 56.8935C20.9146 56.9701 20.9402 57.0404 20.9913 57.1043C21.068 57.1809 21.1637 57.2193 21.2596 57.2193C21.4001 57.2193 21.5534 57.1809 21.7194 57.1043C21.2787 57.5259 20.7613 57.9666 20.1481 58.3882C20.0523 58.4648 19.9948 58.599 20.014 58.7331C20.014 58.7459 20.014 58.7523 20.014 58.7523C20.0332 58.9056 20.1481 59.0014 20.2823 59.0397C22.6392 59.5571 25.2645 57.4109 26.4909 56.242C26.4718 56.721 26.4718 57.3342 26.5484 57.9474C26.6826 59.078 27.0275 59.8637 27.5449 60.2469C27.679 60.3428 27.8515 60.3428 27.9856 60.2469C28.0814 60.1511 28.1389 60.0361 28.1198 59.9212C28.1198 59.8828 28.107 59.8445 28.0814 59.8062C28.0048 59.6401 27.9537 59.4485 27.9281 59.2313C27.6215 56.6635 30.7642 52.1412 30.8025 52.0837C30.86 52.0262 30.8792 51.9304 30.86 51.8346Z" fill="url(#paint1_linear_330_2065)"/>
<path d="M27.0863 58.1006C26.0706 55.8394 29.5391 50.8763 29.5391 50.8763L7.2914 37.9033C7.2914 37.9033 4.28286 38.5548 4.43616 39.3213C5.73921 39.0147 7.69379 39.6854 7.69379 39.6854C7.69379 39.6854 6.14163 40.4136 3.43972 40.1836C4.95356 41.1418 6.71651 40.6435 8.51779 41.4292C7.27222 41.1418 5.96916 42.5598 5.96916 42.5598C5.96916 42.5598 7.09976 42.234 9.3801 43.0005C8.1537 42.6556 6.1991 43.3838 6.1991 43.3838C7.92373 43.3263 9.47591 44.5719 9.47591 44.5719C8.42197 44.936 7.27222 46.124 7.27222 46.124C7.27222 46.124 8.15369 45.2234 9.89748 46.0474C9.26512 47.0247 6.16079 46.7372 6.16079 46.7372C6.16079 46.7372 7.44469 47.0822 10.9706 47.7337C10.5682 48.7876 8.92022 48.6152 8.92022 48.6152C8.92022 48.6152 10.1275 48.7876 12.2737 48.2127C11.6221 48.596 10.6065 51.2213 11.5455 52.0261C11.7563 49.1709 15.4546 49.8416 15.4546 49.8416C15.4546 49.8416 14.3432 51.4129 12.9635 51.8536C14.4007 52.3135 16.9301 50.838 16.9301 50.838C16.9301 50.838 15.5696 53.7316 13.9408 54.134C16.9685 55.4945 19.3254 52.1027 19.3254 52.1027C19.3254 52.1027 18.7122 54.843 19.9961 55.9736C19.8045 54.4214 22.4681 51.9686 22.4681 51.9686C22.4681 51.9686 21.3567 53.7315 21.2609 55.322C22.219 55.3412 24.3269 52.0836 24.3269 52.0836C24.3269 52.0836 23.6562 54.6897 20.456 56.9508C23.1005 57.5257 26.3197 53.9232 26.3197 53.9232C26.3197 53.9232 25.9365 57.2383 27.0863 58.1006Z" fill="#318063"/>
<path d="M49.6409 26.6931C49.6792 26.6356 53.3967 22.5731 55.9645 22.3049C56.1816 22.2921 56.3861 22.3048 56.5777 22.3432C56.6032 22.3432 56.6352 22.3432 56.6735 22.3432C56.8076 22.324 56.9034 22.2474 56.9609 22.1324C57.0376 21.9982 56.9993 21.8258 56.8651 21.7108C56.3861 21.2892 55.5429 21.1359 54.4123 21.2509C53.7991 21.3084 53.2051 21.4425 52.7452 21.5575C53.6075 20.1203 55.1022 17.0735 54.1057 14.8889C54.0291 14.774 53.9141 14.6782 53.7608 14.6973C53.748 14.6973 53.7416 14.6973 53.7416 14.6973C53.6075 14.6973 53.4925 14.7931 53.435 14.9081C53.1668 15.598 52.841 16.192 52.5152 16.7286C52.5663 16.5497 52.5727 16.39 52.5344 16.2495C52.5152 16.1537 52.4386 16.0579 52.3619 16.0195C52.2981 15.9812 52.2278 15.9621 52.1511 15.9621C52.1256 15.9748 52.1 15.9812 52.0745 15.9812C51.5379 16.1537 50.9822 16.4219 50.5031 16.7094C51.1738 15.9237 51.9403 15.2147 52.6302 15.1381C52.7835 15.1189 52.8985 15.0231 52.9368 14.8698C52.9751 14.7356 52.9176 14.5823 52.8027 14.4865C52.2086 14.0841 51.4229 13.9117 50.4648 14.0075C50.0049 14.065 49.5642 14.1608 49.1809 14.2758C49.9858 12.9727 51.0014 10.5774 49.3726 8.41202C49.2959 8.31621 49.1618 8.25871 49.0468 8.27787C49.0213 8.27787 48.9957 8.28428 48.9702 8.29705C48.8169 8.33538 48.721 8.46951 48.721 8.62281C48.7019 9.63842 47.7054 10.8457 46.8623 11.6697C47.0922 10.5774 47.2647 8.94857 46.6707 7.95212C46.6132 7.83714 46.479 7.76049 46.3257 7.77965C46.313 7.77965 46.3002 7.78603 46.2874 7.79881C46.1341 7.81797 46.0191 7.95213 46.0191 8.10543C45.9233 9.06355 45.3293 10.0408 44.9077 10.5966C44.7352 9.92587 44.5436 8.85277 44.946 8.00962C45.1952 7.4539 45.6359 7.10897 46.3066 6.89818C46.4407 6.85985 46.5365 6.74488 46.5557 6.61074C46.5748 6.4766 46.5365 6.34246 46.4215 6.26581C46.1022 6.03586 45.6997 5.94645 45.2143 5.99755C44.3328 6.09336 43.2789 6.64907 42.6082 7.26227C42.5507 5.40351 42.2058 4.44538 42.1866 4.38789C42.1291 4.23459 41.9567 4.15793 41.8034 4.15793C41.7778 4.17071 41.7523 4.17711 41.7267 4.17711C41.5351 4.25376 41.4393 4.44537 41.4968 4.63699C41.516 4.65616 41.8417 5.67178 41.4968 6.3233C40.0979 3.06568 39.4655 1.8776 39.4464 1.82011C39.3697 1.68597 39.2356 1.60932 39.0823 1.62849C39.044 1.62849 39.012 1.64125 38.9865 1.6668C38.814 1.72429 38.7182 1.91592 38.7757 2.10755C39.1206 3.14233 39.4081 4.6945 39.2356 5.51849C38.5458 4.33041 38.9865 3.56391 39.0057 3.52558C39.1206 3.37228 39.0631 3.14233 38.9098 3.04652C38.8332 2.98903 38.7565 2.96986 38.6799 2.98902C38.5649 2.98902 38.4691 3.04652 38.4116 3.14233C38.3733 3.19982 37.6642 4.31124 37.3385 5.44183C36.8211 4.92445 36.0354 3.96631 35.8055 2.7974C35.7863 2.62493 35.633 2.50996 35.4414 2.50996C35.4414 2.50996 35.435 2.50996 35.4222 2.50996C35.2498 2.52912 35.1348 2.64409 35.0965 2.81655C35.0965 2.85488 35.039 3.25731 35.039 3.79386C34.8665 3.1615 34.8665 2.81655 34.8665 2.81655C34.8857 2.66325 34.7899 2.50997 34.6366 2.45248C34.5855 2.43971 34.5344 2.4333 34.4833 2.4333C34.3683 2.45247 34.2725 2.50996 34.215 2.58661C34.1767 2.6441 33.6785 3.39144 33.4485 4.31124C33.3144 3.94715 33.1803 3.56389 33.0653 3.1998C32.7204 2.22252 32.3754 1.20691 31.5706 0.382922C31.4939 0.306272 31.3789 0.267947 31.264 0.28711C31.2129 0.28711 31.1682 0.306282 31.1298 0.344607C30.9765 0.421257 30.919 0.593715 30.9765 0.747015C31.3981 2.14588 31.5323 3.29563 31.5323 4.10046C31.2448 3.44893 30.9574 2.62493 30.9765 1.93508C30.9765 1.83927 30.9382 1.74345 30.8616 1.6668C30.7849 1.60931 30.6891 1.57099 30.5933 1.57099C30.5805 1.57099 30.5677 1.57099 30.555 1.57099C29.9993 1.62848 29.6543 2.29917 29.501 3.64055C29.4052 4.52203 29.4052 5.34601 29.4052 5.38434C29.4052 5.48015 29.4435 5.55681 29.501 5.63346L49.1043 26.6931C49.181 26.7697 49.2767 26.808 49.3726 26.808C49.3853 26.808 49.3981 26.808 49.4109 26.808C49.4875 26.7889 49.5834 26.7506 49.6409 26.6931Z" fill="url(#paint2_linear_330_2065)"/>
<path d="M50.4448 21.9025C50.4448 21.9025 53.2425 17.9742 52.1119 15.5214C50.5981 19.1431 48.2028 20.3695 48.2028 20.3695C48.2028 20.3695 50.9238 17.5909 50.6747 16.6711C49.1609 17.1119 47.6662 18.5874 47.6662 18.5874C47.6662 18.5874 49.4866 15.4447 51.0388 15.2914C49.6591 14.295 47.1105 15.5022 47.1105 15.5022C47.1105 15.5022 49.9082 12.4362 47.9153 9.77263C47.877 11.4589 45.3475 13.4327 45.3475 13.4327C45.3475 13.4327 46.2482 10.6349 45.4817 9.33188C45.3475 10.7882 44.0636 12.2063 44.0636 12.2063C44.0636 12.2063 42.5882 8.73786 45.3284 7.91387C44.3319 7.1857 42.0133 8.73786 41.7833 9.46603C41.86 7.24318 41.4192 6.09344 41.4192 6.09344C41.4192 6.09344 41.9558 7.68392 41.0168 8.29712C39.5988 5.00117 38.9856 3.83225 38.9856 3.83225C38.9856 3.83225 39.9437 6.80245 39.1389 7.62644C37.9508 6.1126 38.6215 5.0395 38.6215 5.0395C38.6215 5.0395 37.7208 6.43836 37.5867 7.53062C37.5867 7.53062 36.0345 6.30421 35.7088 4.61791C35.7088 4.61791 35.4214 6.66829 36.0346 7.79888C34.789 5.74849 34.8656 4.56043 34.8656 4.56043C34.8656 4.56043 33.7542 6.13175 34.3099 7.30066C33.1602 5.71017 33.256 3.87056 31.9913 2.625C32.8152 5.21194 32.432 6.87909 32.432 6.87909C32.432 6.87909 31.3589 5.11613 31.3781 3.77475C30.5924 3.81308 30.6116 6.87909 30.6116 6.87909L48.1644 25.7158C48.1644 25.7158 52.246 21.2318 54.6797 21.73C53.5874 20.8102 50.4448 21.9025 50.4448 21.9025Z" fill="#318063"/>
<path d="M30.8025 9.31261C30.7642 9.27429 27.6215 4.73278 27.9281 2.18416C27.9537 1.96699 28.0048 1.77536 28.0814 1.60929C28.107 1.57096 28.1198 1.53264 28.1198 1.49432C28.1389 1.37934 28.0814 1.24519 27.9856 1.16854C27.8515 1.07273 27.679 1.07273 27.5449 1.16854C27.0275 1.55179 26.6826 2.33745 26.5484 3.46804C26.4718 4.08124 26.4718 4.67529 26.4909 5.17351C25.2645 4.0046 22.6392 1.8584 20.2823 2.37579C20.1481 2.39495 20.0332 2.50993 20.014 2.64407C20.014 2.65684 20.014 2.66961 20.014 2.68238C19.9948 2.81652 20.0523 2.93149 20.1481 3.00814C20.7613 3.44887 21.2787 3.87046 21.7194 4.3112C21.5534 4.23455 21.4001 4.19623 21.2596 4.19623C21.1637 4.19623 21.068 4.23455 20.9913 4.3112C20.9402 4.3623 20.9146 4.42617 20.9146 4.50282C20.9019 4.52837 20.8955 4.55393 20.8955 4.57948C20.9338 5.15435 21.0871 5.7484 21.2596 6.28495C20.6464 5.46096 20.129 4.54114 20.2056 3.87045C20.2248 3.71715 20.1481 3.56387 20.014 3.50638C19.8799 3.42973 19.7265 3.44888 19.6116 3.5447C19.075 4.02376 18.7493 4.75194 18.6343 5.71007C18.5768 6.18913 18.5768 6.62985 18.596 7.03227C17.5037 5.95916 15.3958 4.44533 12.9239 5.55676C12.8089 5.61425 12.7322 5.71006 12.7131 5.8442C12.7131 5.86975 12.7131 5.8953 12.7131 5.92085C12.7322 6.07415 12.8472 6.18912 12.9814 6.22745C13.9587 6.4574 14.9359 7.72213 15.5491 8.71858C14.5335 8.25868 12.9814 7.72212 11.8891 8.0862C11.755 8.12453 11.6591 8.2395 11.64 8.37364C11.64 8.38642 11.64 8.39921 11.64 8.41198C11.64 8.56528 11.7358 8.71857 11.8891 8.75689C12.7897 9.06349 13.6137 9.84916 14.0736 10.3857C13.3838 10.424 12.2723 10.3665 11.5442 9.79167C11.0651 9.42759 10.816 8.91021 10.7777 8.2012C10.7585 8.06706 10.6819 7.95207 10.5477 7.89458C10.4328 7.83709 10.2794 7.87543 10.1836 7.95208C9.88979 8.20758 9.71093 8.57806 9.64705 9.06351C9.53208 9.94499 9.85787 11.0947 10.2986 11.8996C8.47817 11.5355 7.46256 11.6696 7.42423 11.6888C7.25177 11.7079 7.13677 11.8421 7.11761 11.9954C7.10484 12.0209 7.10484 12.0465 7.11761 12.072C7.13677 12.2828 7.30924 12.4169 7.50086 12.3978C7.52003 12.3978 8.59315 12.302 9.14886 12.781C5.66128 13.4325 4.35822 13.7775 4.30073 13.7775C4.16659 13.8158 4.05164 13.9499 4.03247 14.0841C4.03247 14.1224 4.03883 14.1607 4.05161 14.1991C4.07077 14.3715 4.24323 14.5057 4.43486 14.4865C5.52712 14.3907 7.07932 14.4482 7.86498 14.7931C6.56193 15.2147 5.91037 14.6015 5.87205 14.5823C5.73791 14.4482 5.50799 14.429 5.37385 14.5823C5.31636 14.6398 5.27802 14.7164 5.25886 14.7931C5.25886 14.8889 5.27804 15.0039 5.37385 15.0805C5.41218 15.138 6.33196 16.077 7.36673 16.6327C6.75353 17.016 5.64212 17.5717 4.45404 17.5333C4.28158 17.5333 4.12825 17.6483 4.08992 17.8208C4.08992 17.8335 4.08992 17.8463 4.08992 17.8591C4.07076 18.0124 4.16661 18.1849 4.31991 18.2423C4.35824 18.2423 4.72231 18.3956 5.25886 18.5298C4.60733 18.5489 4.28158 18.4531 4.26241 18.4531C4.10912 18.4148 3.9558 18.4723 3.85998 18.6064C3.83443 18.6575 3.81526 18.7086 3.80249 18.7597C3.80249 18.8556 3.82165 18.9705 3.8983 19.0472C3.93662 19.0855 4.56902 19.7562 5.41217 20.1778C5.00975 20.2353 4.62648 20.2736 4.24323 20.3119C3.20846 20.4269 2.13539 20.5227 1.1581 21.1551C1.08145 21.2125 1.02395 21.3083 1.00479 21.4042C0.992012 21.468 0.998371 21.5255 1.02392 21.5766C1.08141 21.7299 1.23474 21.8258 1.38804 21.8066C2.84439 21.6916 3.99413 21.8258 4.77979 21.9982C4.07078 22.1324 3.20848 22.2281 2.53779 22.0748C2.44198 22.0557 2.34613 22.0749 2.26949 22.1132C2.17367 22.1707 2.13539 22.2665 2.11622 22.3623C2.10345 22.3751 2.09704 22.3878 2.09704 22.4006C2.03955 22.9563 2.59525 23.4354 3.8983 23.8761C4.72229 24.1636 5.52715 24.3552 5.56548 24.3552C5.66129 24.3744 5.75708 24.3552 5.83373 24.3169L30.6875 9.83001C30.7833 9.79169 30.8408 9.69586 30.86 9.60005C30.86 9.58727 30.86 9.57451 30.86 9.56173C30.8792 9.48508 30.86 9.38926 30.8025 9.31261Z" fill="url(#paint3_linear_330_2065)"/>
<path d="M26.3197 7.4732C26.3197 7.4732 23.1005 3.8898 20.456 4.44551C23.6562 6.70669 24.3269 9.33195 24.3269 9.33195C24.3269 9.33195 22.219 6.07434 21.2609 6.09351C21.3567 7.684 22.4681 9.44695 22.4681 9.44695C22.4681 9.44695 19.8045 6.99414 19.9961 5.44198C18.7122 6.57257 19.3254 9.3128 19.3254 9.3128C19.3254 9.3128 16.9685 5.92104 13.9408 7.28157C15.5696 7.66482 16.9301 10.5775 16.9301 10.5775C16.9301 10.5775 14.4007 9.08286 12.9635 9.54276C14.3432 10.0027 15.4546 11.574 15.4546 11.574C15.4546 11.574 11.7563 12.2447 11.5455 9.38945C10.6065 10.1943 11.6221 12.8004 12.2737 13.1836C10.1275 12.6088 8.92022 12.7812 8.92022 12.7812C8.92022 12.7812 10.5682 12.6279 10.9706 13.6819C7.44469 14.3142 6.16079 14.6591 6.16079 14.6591C6.16079 14.6591 9.26512 14.3909 9.89748 15.3681C8.15369 16.1921 7.27222 15.2915 7.27222 15.2915C7.27222 15.2915 8.42197 16.4796 9.47591 16.8437C9.47591 16.8437 7.92373 18.0892 6.1991 18.0317C6.1991 18.0317 8.1537 18.7599 9.3801 18.415C7.09976 19.1815 5.96916 18.8557 5.96916 18.8557C5.96916 18.8557 7.27222 20.2738 8.51779 19.9863C6.71651 20.772 4.95356 20.2546 3.43972 21.2127C6.14163 21.0019 7.69379 21.7301 7.69379 21.7301C7.69379 21.7301 5.73921 22.4008 4.43616 22.0942C4.28286 22.8607 7.2914 23.5122 7.2914 23.5122L29.5391 10.5392C29.5391 10.5392 26.0706 5.57612 27.0863 3.31494C25.9365 4.15809 26.3197 7.4732 26.3197 7.4732Z" fill="#318063"/>
<path d="M2.17348 29.5675C2.17348 31.867 4.66464 33.7833 5.22035 35.8912C5.81439 38.0757 4.64547 40.9884 5.73773 42.9047C6.86832 44.8401 9.97266 45.2616 11.544 46.833C13.1153 48.4235 13.556 51.5278 15.4914 52.6584C17.4077 53.7506 20.3204 52.5817 22.4858 53.1758C24.5936 53.7315 26.529 56.2226 28.8094 56.2226C31.1089 56.2226 33.0251 53.7315 35.133 53.1758C37.3175 52.5817 40.2302 53.7506 42.1273 52.6584C44.0819 51.5278 44.5035 48.4235 46.0748 46.833C47.6462 45.2616 50.7697 44.8401 51.8811 42.9047C52.9925 40.9884 51.8236 38.0757 52.3985 35.8912C52.9733 33.7833 55.4453 31.867 55.4453 29.5675C55.4453 27.2872 52.9733 25.3709 52.3985 23.2631C51.8236 21.0785 52.9925 18.1658 51.8811 16.2496C50.7697 14.3142 47.6462 13.8926 46.0748 12.3213C44.5035 10.7308 44.0819 7.62645 42.1273 6.49586C40.2302 5.4036 37.3175 6.5725 35.133 5.97846C33.0251 5.42275 31.1089 2.93164 28.8094 2.93164C26.529 2.93164 24.5936 5.42275 22.4858 5.97846C20.3204 6.5725 17.4077 5.4036 15.4914 6.49586C13.556 7.62645 13.1153 10.7308 11.544 12.3213C9.97266 13.8926 6.86832 14.3142 5.73773 16.2496C4.64547 18.1658 5.81439 21.0785 5.22035 23.2631C4.66464 25.3709 2.17348 27.2872 2.17348 29.5675Z" fill="url(#paint4_linear_330_2065)"/>
<path d="M3.51676 28.2453C3.51676 28.7244 3.63175 29.2035 3.82338 29.6634C4.05333 30.2382 4.41742 30.7939 4.78151 31.3496C5.43303 32.3269 6.14204 33.2659 6.41032 34.2432C6.77441 35.6037 6.4295 37.2325 6.4295 38.7272C6.4295 39.5129 6.5253 40.2602 6.88938 40.8926C7.00436 41.0842 7.13852 41.2631 7.29181 41.4291C8.55654 42.828 11.0668 43.3071 12.4082 44.6484C13.9029 46.1431 14.3244 49.0942 16.164 50.1673C17.9653 51.2212 20.7439 50.1098 22.8135 50.6463C24.8064 51.1829 26.6459 53.559 28.8113 53.559C30.9958 53.559 32.8163 51.1829 34.8284 50.6463C36.8979 50.1098 39.6573 51.2212 41.4777 50.1673C43.3173 49.0942 43.7198 46.1431 45.2144 44.6484C46.7091 43.1538 49.6793 42.7322 50.7332 40.8926C50.7716 40.8287 50.8099 40.7585 50.8482 40.6818C51.1165 40.1069 51.1931 39.4554 51.2123 38.7847C51.2123 37.29 50.8674 35.6229 51.2315 34.2432C51.768 32.2503 54.125 30.4107 54.125 28.2453C54.125 26.08 51.768 24.2403 51.2315 22.2474C50.6758 20.1587 51.7872 17.3993 50.7332 15.5789C49.6793 13.7393 46.7091 13.3369 45.2144 11.8422C43.7198 10.3475 43.3173 7.3965 41.4777 6.3234C39.6573 5.26946 36.8979 6.38089 34.8284 5.82518C32.8163 5.30779 30.9958 2.93164 28.8113 2.93164C26.6459 2.93164 24.8064 5.30779 22.8135 5.82518C20.7439 6.38089 17.9653 5.26946 16.164 6.3234C14.3627 7.35817 13.922 10.1942 12.5423 11.7081C12.504 11.7592 12.4593 11.8039 12.4082 11.8422C11.3351 12.9153 9.51464 13.4327 8.17326 14.3142C7.65587 14.6591 7.19598 15.0615 6.88938 15.5789C5.85461 17.3993 6.96603 20.1587 6.41032 22.2474C5.87377 24.2403 3.51676 26.08 3.51676 28.2453Z" fill="url(#paint5_linear_330_2065)"/>
<path d="M6.9277 33.8983C7.48341 35.9487 6.37201 38.6889 7.42594 40.4902C8.46072 42.3106 11.3926 42.713 12.8681 44.1885C14.3436 45.664 14.7652 48.5959 16.5856 49.6499C18.3678 50.6846 21.108 49.5732 23.1583 50.1289C25.1321 50.6655 26.9525 53.0033 29.0987 53.0033C31.2449 53.0033 33.0462 50.6655 35.0391 50.1289C37.0895 49.5732 39.8106 50.6846 41.6119 49.6499C43.4323 48.5959 43.8347 45.664 45.3102 44.1885C46.7858 42.713 49.7176 42.3106 50.7716 40.4902C51.8063 38.6889 50.7141 35.9487 51.2506 33.8983C51.7872 31.9245 54.125 30.1041 54.125 27.9579C54.125 26.8465 53.4926 25.8308 52.8219 24.8152C52.362 24.1445 51.8638 23.4739 51.5381 22.784C51.4231 22.5285 51.3273 22.273 51.2506 22.0175C50.7141 19.9863 51.8063 17.246 50.7716 15.4448C49.7176 13.6243 46.7858 13.2219 45.3102 11.7464C43.8347 10.2709 43.4323 7.33902 41.6119 6.28508C39.8106 5.25031 37.0895 6.34257 35.0391 5.80602C33.0462 5.26947 31.2449 2.93164 29.0987 2.93164C26.9525 2.93164 25.1321 5.26947 23.1583 5.80602C21.108 6.34257 18.3678 5.25031 16.5856 6.28508C14.8418 7.3007 14.3819 10.0026 13.0597 11.5356C13.0086 11.6122 12.9447 11.6825 12.8681 11.7464C11.8141 12.8003 10.0129 13.3177 8.69064 14.18C8.15409 14.525 7.71338 14.9274 7.42594 15.4448C6.37201 17.246 7.48341 19.9863 6.9277 22.0175C6.41031 24.0104 4.0725 25.8117 4.0725 27.9579C4.0725 30.1041 6.41031 31.9245 6.9277 33.8983Z" fill="url(#paint6_linear_330_2065)"/>
<path d="M42.0127 23.8568C45.5386 24.4317 49.9459 24.6999 52.8203 24.8149C52.3604 24.1442 51.8622 23.4735 51.5364 22.7837C49.0261 22.937 45.5961 23.0711 42.1085 22.9178C41.5144 22.8987 41.4186 23.761 42.0127 23.8568Z" fill="url(#paint7_linear_330_2065)"/>
<path d="M3.82201 29.6631C4.05196 30.238 4.41605 30.7937 4.78014 31.3494C31.7226 32.1159 44.849 37.0981 50.8468 40.6815C51.1151 40.1067 51.1918 39.4551 51.2109 38.7844C50.7638 38.2734 50.2783 37.7113 49.7546 37.0981C34.8653 31.2919 11.717 29.9505 3.82201 29.6631Z" fill="url(#paint8_linear_330_2065)"/>
<path d="M6.42939 38.7275C6.42939 39.5132 6.52519 40.2606 6.88927 40.8929C7.00425 41.0845 7.13841 41.2634 7.29171 41.4294C9.87865 42.1001 16.528 43.6906 22.9283 44.323C23.3882 44.3613 23.484 43.7098 23.0433 43.6331C16.5089 42.4259 9.93613 40.0881 6.42939 38.7275Z" fill="url(#paint9_linear_330_2065)"/>
<path d="M8.17108 14.3141C11.5054 15.1956 21.0483 17.5334 29.2499 17.5717C29.7481 17.5717 29.8248 16.8436 29.3265 16.7478C22.7729 15.5022 16.1235 13.126 12.5401 11.708C12.5018 11.7591 12.4571 11.8038 12.406 11.8422C11.3329 12.9153 9.51245 13.4326 8.17108 14.3141Z" fill="url(#paint10_linear_330_2065)"/>
<path d="M28.7899 39.3019C29.1348 39.3019 29.4797 39.206 29.7863 39.0336L42.4336 31.7135C43.066 31.3494 43.4492 30.6979 43.4492 29.9697C43.4492 29.2415 43.066 28.59 42.4336 28.2259L29.7863 20.925C29.4797 20.7525 29.1348 20.6567 28.7899 20.6567C27.6785 20.6567 26.7586 21.5574 26.7586 22.6688V24.5084H16.2768C15.3186 24.5084 14.5521 25.2749 14.5521 26.233V33.7256C14.5521 34.6837 15.3186 35.4502 16.2768 35.4502H26.7586V37.2898C26.7586 38.4012 27.6785 39.3019 28.7899 39.3019Z" fill="url(#paint11_linear_330_2065)"/>
<path fill-rule="evenodd" clip-rule="evenodd" d="M26.2583 22.669V24.0104H16.2746C15.0482 24.0104 14.0518 25.0068 14.0518 26.2332V33.7258C14.0518 34.9522 15.0482 35.9486 16.2746 35.9486H26.2583V37.29C26.2583 38.6697 27.3889 39.8003 28.7878 39.8003C29.2094 39.8003 29.6501 39.6853 30.0333 39.4745L42.6997 32.1544C43.4854 31.7137 43.9453 30.8897 43.9453 29.9699C43.9453 29.0693 43.4854 28.2453 42.6997 27.8045L30.0333 20.4845C29.6501 20.2737 29.2094 20.1587 28.7878 20.1587C27.3889 20.1587 26.2583 21.2893 26.2583 22.669ZM29.5351 21.3659L42.1824 28.6669C43.198 29.2609 43.198 30.6981 42.1824 31.2921L29.5351 38.593C29.286 38.7272 29.0369 38.7847 28.7878 38.7847C28.0021 38.7847 27.2739 38.1715 27.2739 37.29V34.933H16.2746C15.604 34.933 15.0483 34.3965 15.0483 33.7258V26.2332C15.0483 25.5625 15.604 25.026 16.2746 25.026H27.2739V22.669C27.2739 21.7875 28.0021 21.1552 28.7878 21.1552C29.0369 21.1552 29.286 21.2318 29.5351 21.3659Z" fill="#5A2903"/>
<path d="M16.5681 25.8117V32.6911C16.5681 33.3043 17.0855 33.8025 17.7179 33.8025H28.1231V35.9487C28.1231 37.0218 29.3112 37.6925 30.2693 37.156L38.5667 32.4995L42.2267 30.4491C43.1848 29.9125 43.1848 28.5903 42.2267 28.0538L30.2693 21.3469C29.3112 20.8295 28.1231 21.481 28.1231 22.5541V24.7003H17.7179C17.5646 24.7003 17.4177 24.7259 17.2771 24.777C16.8556 24.9494 16.5681 25.3518 16.5681 25.8117Z" fill="url(#paint12_linear_330_2065)"/>
<g opacity="0.3">
<path d="M16.5639 25.8116V32.691C16.5639 33.3042 17.0813 33.8024 17.7137 33.8024H28.1189V35.9486C28.1189 37.0217 29.307 37.6924 30.2651 37.1558L38.5625 32.4993C26.9117 31.4071 20.3581 27.3638 17.2729 24.7769C16.8513 24.9493 16.5639 25.3517 16.5639 25.8116Z" fill="#318063"/>
</g>
<defs>
<linearGradient id="paint0_linear_330_2065" x1="64.511" y1="52.0832" x2="51.1547" y2="28.0917" gradientUnits="userSpaceOnUse">
<stop stop-color="#95D543"/>
<stop offset="1" stop-color="#318063"/>
</linearGradient>
<linearGradient id="paint1_linear_330_2065" x1="17.178" y1="70.4222" x2="37.586" y2="52.122" gradientUnits="userSpaceOnUse">
<stop stop-color="#95D543"/>
<stop offset="1" stop-color="#318063"/>
</linearGradient>
<linearGradient id="paint2_linear_330_2065" x1="64.511" y1="9.33182" x2="51.1547" y2="33.3233" gradientUnits="userSpaceOnUse">
<stop stop-color="#95D543"/>
<stop offset="1" stop-color="#318063"/>
</linearGradient>
<linearGradient id="paint3_linear_330_2065" x1="17.178" y1="-9.00676" x2="37.586" y2="9.29346" gradientUnits="userSpaceOnUse">
<stop stop-color="#95D543"/>
<stop offset="1" stop-color="#318063"/>
</linearGradient>
<linearGradient id="paint4_linear_330_2065" x1="9.24446" y1="6.74498" x2="-7.35028" y2="44.4568" gradientUnits="userSpaceOnUse">
<stop stop-color="#F8A45B"/>
<stop offset="1" stop-color="#562500"/>
</linearGradient>
<linearGradient id="paint5_linear_330_2065" x1="4.01499" y1="79.5625" x2="55.1214" y2="40.586" gradientUnits="userSpaceOnUse">
<stop stop-color="#F8A45B"/>
<stop offset="1" stop-color="#96440C"/>
</linearGradient>
<linearGradient id="paint6_linear_330_2065" x1="13.0597" y1="2.93164" x2="-5.81536" y2="40.9501" gradientUnits="userSpaceOnUse">
<stop stop-color="#F8A45B"/>
<stop offset="1" stop-color="#96440C"/>
</linearGradient>
<linearGradient id="paint7_linear_330_2065" x1="41.3995" y1="21.5956" x2="41.112" y2="25.4473" gradientUnits="userSpaceOnUse">
<stop offset="0.4" stop-color="#96440C"/>
<stop offset="0.5" stop-color="#B76427"/>
</linearGradient>
<linearGradient id="paint8_linear_330_2065" x1="3.70704" y1="27.5552" x2="2.97886" y2="33.0165" gradientUnits="userSpaceOnUse">
<stop offset="0.4" stop-color="#96440C"/>
<stop offset="0.5" stop-color="#B76427"/>
</linearGradient>
<linearGradient id="paint9_linear_330_2065" x1="6.06531" y1="38.5551" x2="5.20299" y2="42.3876" gradientUnits="userSpaceOnUse">
<stop offset="0.4" stop-color="#96440C"/>
<stop offset="0.5" stop-color="#B76427"/>
</linearGradient>
<linearGradient id="paint10_linear_330_2065" x1="8.59265" y1="10.4624" x2="7.50039" y2="15.6938" gradientUnits="userSpaceOnUse">
<stop offset="0.4" stop-color="#96440C"/>
<stop offset="0.5" stop-color="#B76427"/>
</linearGradient>
<linearGradient id="paint11_linear_330_2065" x1="17.2924" y1="18.8938" x2="10.0489" y2="33.4956" gradientUnits="userSpaceOnUse">
<stop stop-color="#318063"/>
<stop offset="1" stop-color="#124933"/>
</linearGradient>
<linearGradient id="paint12_linear_330_2065" x1="18.9443" y1="19.8522" x2="12.8314" y2="32.1354" gradientUnits="userSpaceOnUse">
<stop stop-color="#95D543"/>
<stop offset="1" stop-color="#E3FFBB"/>
</linearGradient>
</defs>
</svg>
